<svg xmlns="http://www.w3.org/2000/svg" xmlns:xlink="http://www.w3.org/1999/xlink" version="1.1" width="1000" height="1000" viewBox="0 0 1000 1000" xml:space="preserve">
  <desc>Created with Fabric.js 3.5.0</desc>
  <defs></defs>
  <g transform="matrix(-1.7758 0 0 -1.7758 499.9894 499.988)" id="73994">
    <path style="stroke: none; stroke-width: 4; stroke-dasharray: none; stroke-linecap: round; stroke-dashoffset: 0; stroke-linejoin: miter; stroke-miterlimit: 4; is-custom-font: none; font-file-url: none; fill: rgb(0,0,0); fill-rule: nonzero; opacity: 1;" vector-effect="non-scaling-stroke" transform="translate(-255.9732, -255.9736)" d="M476.847,216.373L263.513,3.04c-4.267-4.053-10.88-4.053-15.04,0L35.14,216.373c-4.16,4.16-4.16,10.88-0.107,15.04c2.027,2.027,4.8,3.2,7.573,3.2h128V501.28c0,5.867,4.8,10.667,10.667,10.667h149.333c5.867,0,10.667-4.8,10.667-10.667V234.613h128c5.867,0,10.667-4.8,10.667-10.667C479.94,221.067,478.873,218.4,476.847,216.373z M330.607,213.28c-5.867,0-10.667,4.8-10.667,10.667v266.667h-128V223.947c0-5.867-4.8-10.667-10.667-10.667H68.42L255.94,25.547L443.567,213.28H330.607z" stroke-linecap="round"/>
  </g>
</svg>
