<?xml version="1.0" standalone="no"?>
<!DOCTYPE svg PUBLIC "-//W3C//DTD SVG 20010904//EN"
 "http://www.w3.org/TR/2001/REC-SVG-20010904/DTD/svg10.dtd">
<svg version="1.0" xmlns="http://www.w3.org/2000/svg"
 width="134.000000pt" height="119.000000pt" viewBox="0 0 134.000000 119.000000"
 preserveAspectRatio="xMidYMid meet">

<g transform="translate(0.000000,119.000000) scale(0.100000,-0.100000)"
fill="#000000" stroke="none">
<path d="M808 1082 l-128 -77 0 -107 c0 -60 2 -108 4 -108 2 0 20 7 40 15 l36
15 0 -200 c0 -225 -7 -256 -62 -290 -45 -27 -117 -27 -152 1 -48 38 -51 51
-56 284 l-5 220 -27 -2 c-35 -2 -35 2 2 34 25 20 30 32 30 68 0 26 6 47 16 55
13 12 11 15 -17 27 -39 16 -62 10 -83 -22 -10 -15 -36 -29 -73 -40 -63 -18
-98 -13 -176 26 -20 11 -37 15 -37 9 0 -5 17 -18 37 -29 42 -21 83 -60 80 -76
-1 -5 13 -17 30 -25 18 -8 33 -17 33 -20 0 -3 -37 -6 -83 -5 l-82 0 -3 -180
c-3 -219 8 -326 44 -405 90 -201 370 -271 554 -140 l30 21 0 -40 0 -41 180 0
180 0 0 384 0 385 35 -15 c19 -7 37 -14 40 -14 3 0 5 48 5 108 l0 107 -127 75
c-69 41 -129 76 -132 76 -3 1 -63 -32 -133 -74z"/>
</g>
</svg>
